<svg width="559" height="142" viewBox="0 0 559 142" fill="none" xmlns="http://www.w3.org/2000/svg">
<path fill-rule="evenodd" clip-rule="evenodd" d="M57.3111 1.70588C56.7595 2.57877 55.939 3.78814 55.4875 4.39328C55.036 4.99797 54.248 6.06255 53.7362 6.75876C52.7178 8.14389 50.6992 10.7926 48.8992 13.1048C48.2655 13.9189 47.522 14.8756 47.2471 15.2303C46.9717 15.585 46.684 15.9479 46.607 16.0367C46.5296 16.1255 45.698 17.1882 44.7582 18.3981C43.8184 19.6079 42.9654 20.6966 42.8628 20.8177C42.6191 21.1046 42.2612 21.5558 40.5942 23.6772C39.834 24.6453 39.0177 25.6625 38.7809 25.938C38.544 26.2135 37.8539 27.0772 37.2472 27.8577C36.6405 28.6377 35.5622 29.996 34.8516 30.8761C34.1409 31.7558 33.2734 32.835 32.9237 33.2739C32.5744 33.7124 32.1951 34.1773 32.0818 34.3071C31.9681 34.4364 31.5662 34.9354 31.1886 35.4158C30.8111 35.8957 30.0675 36.821 29.5361 37.4717C29.005 38.1219 27.9195 39.4711 27.1242 40.4696C26.3293 41.4677 25.4251 42.5856 25.1151 42.953C24.8051 43.3205 23.7302 44.6441 22.7267 45.894C21.7232 47.1444 20.7094 48.3979 20.4743 48.6802C20.2387 48.9625 19.6722 49.6556 19.2151 50.2202C18.758 50.7848 18.3467 51.2798 18.301 51.3203C18.2557 51.3603 17.8234 51.8885 17.3411 52.4932C16.8588 53.0984 16.4304 53.6261 16.3893 53.6662C16.3483 53.7067 15.946 54.2016 15.4949 54.7663C15.0442 55.3309 14.5701 55.9051 14.4409 56.0421C12.7807 57.8084 8.4298 65.5181 7.17448 68.9177C7.07058 69.2 6.87432 69.6949 6.73836 70.0173C6.43735 70.7335 5.38469 73.6318 5.22948 74.1718C2.44005 83.8864 2.35326 91.5716 4.9567 98.3201C5.66132 100.147 6.345 101.573 6.97651 102.535C7.22749 102.917 7.43315 103.264 7.43315 103.306C7.43315 104.369 12.7871 109.539 13.8881 109.539C13.9732 109.539 14.0429 109.603 14.0429 109.683C14.0429 109.761 14.213 109.871 14.4213 109.925C14.6295 109.979 15.1528 110.203 15.5838 110.424C16.4988 110.892 18.7935 111.531 20.3323 111.745C21.0506 111.845 33.3495 111.881 57.2375 111.854L93.0653 111.812L93.4843 111.384C94.1778 110.677 94.2372 110.261 94.23 106.166C94.224 102.621 93.9546 98.928 93.6378 98.0346C93.5788 97.8689 93.486 97.3707 93.4313 96.9272C93.2637 95.5703 92.35 92.0533 91.9746 91.3198C91.9027 91.1795 91.8442 90.9487 91.8437 90.8066C91.8433 90.6641 91.7274 90.3454 91.5855 90.0981C91.444 89.8504 91.287 89.5107 91.237 89.3432C90.5974 87.1972 87.6698 82.6224 85.261 80.0056C76.8371 70.8528 61.3451 67.3568 53.3565 72.8053C47.277 76.9516 45.3872 81.6002 45.4667 92.2127C45.506 97.4345 45.5184 97.6549 45.7929 98.0528C46.5117 99.096 48.0158 99.2654 48.7683 98.3884C48.9821 98.1394 49.1685 97.9231 49.1835 97.908C49.1981 97.8926 49.2447 95.2407 49.2866 92.0142C49.3729 85.4104 49.3956 85.257 50.5504 83.4206C51.1849 82.4116 54.1736 79.2133 55.0535 78.6018C55.4076 78.3559 55.7907 78.0881 55.904 78.0076C56.866 77.3236 57.648 76.8346 58.0149 76.6875C58.2551 76.591 58.7306 76.3938 59.0714 76.2486C61.7287 75.1184 65.8299 75.699 68.2721 77.5509C68.4987 77.7225 68.73 77.8632 68.7861 77.8632C68.9002 77.8632 68.9353 77.8965 70.8213 79.7979C71.5661 80.5483 72.3643 81.4722 72.5952 81.8511C72.8265 82.2294 73.0912 82.57 73.1836 82.6078C73.2763 82.6456 73.526 82.9958 73.739 83.386C73.9515 83.7762 74.1678 84.1286 74.2191 84.1687C74.5671 84.4415 75.4945 86.883 75.8622 88.494C76.3723 90.7278 76.4215 91.6585 76.4215 99.0154V106.254L76.0435 106.875C75.7801 107.308 75.5198 107.54 75.1828 107.644C74.1935 107.949 22.3812 107.746 21.4098 107.433C18.3796 106.457 16.1495 104.613 14.8843 102.036C14.6731 101.605 14.4003 101.055 14.278 100.813C14.1557 100.571 13.9206 99.9771 13.7555 99.4935C13.5901 99.0095 13.4037 98.4813 13.3404 98.3201C12.2638 95.5626 11.5023 86.6731 12.0598 83.3623C12.4369 81.1225 13.4592 77.5645 14.2511 75.7368C14.426 75.3334 14.8155 74.4095 15.1169 73.6837C15.7373 72.1902 16.9439 69.6512 17.3471 68.991C17.495 68.7487 17.8123 68.155 18.0517 67.671C18.2916 67.1874 18.6341 66.5873 18.8128 66.3373C18.9915 66.0877 19.1377 65.8437 19.1377 65.795C19.1377 65.7462 19.3143 65.4225 19.5302 65.0755C19.7461 64.7286 20.4097 63.6531 21.0049 62.685C21.6005 61.7174 22.3688 60.5377 22.7126 60.0641C23.0563 59.5906 23.5237 58.9221 23.7507 58.5792C24.4241 57.5625 25.0659 56.6691 26.1605 55.2248C26.7283 54.4753 27.379 53.6074 27.6065 53.2964C32.4495 46.6645 38.969 40.4418 44.2798 37.382C46.6464 36.0182 47.3745 35.6576 49.2943 34.8981C50.6274 34.3708 50.7206 34.3408 52.8747 33.7329C56.7937 32.6273 62.3362 32.5103 66.1629 33.452C69.9794 34.3909 73.7488 35.8024 75.8708 37.0865C75.9845 37.1552 76.4801 37.4216 76.9726 37.6784C77.4648 37.9347 77.9603 38.2043 78.074 38.2767C78.1878 38.3496 78.9621 38.8486 79.7954 39.3864C80.6283 39.9241 81.527 40.5006 81.7921 40.6681C82.0572 40.8352 82.3557 41.057 82.4561 41.1603C82.5562 41.2637 82.6909 41.3479 82.7559 41.3479C82.8208 41.3479 82.9559 41.4322 83.056 41.5346C83.2629 41.7468 84.5999 42.688 85.0532 42.9403C87.0204 44.0358 88.6781 41.1767 87.0785 39.4478C86.8712 39.2238 86.6227 38.8759 84.5739 35.9445C83.9907 35.1103 83.2501 34.0753 82.9282 33.645C82.6062 33.2147 82.3428 32.7922 82.3428 32.7057C82.3428 32.6196 82.2928 32.5495 82.2312 32.5495C82.129 32.5495 81.4655 31.6484 79.2609 28.5166C78.8069 27.8714 78.1835 27.0058 77.8761 26.5932C77.5682 26.1807 77.2236 25.6917 77.1103 25.5068C76.9966 25.3219 76.743 24.9668 76.5472 24.7172C76.3514 24.4677 75.58 23.4059 74.8331 22.3572C74.0866 21.309 73.2105 20.0883 72.8868 19.6443C72.5627 19.2008 72.0146 18.4418 71.6683 17.9582C70.7862 16.7256 69.5441 15.0108 69.0546 14.3506C68.8275 14.0437 68.084 13.021 67.402 12.078C66.7205 11.1345 66.0077 10.1496 65.8188 9.88874C65.6293 9.62783 65.2894 9.15884 65.0637 8.84693C64.8375 8.53457 64.4039 7.95174 64.0995 7.55104C63.7955 7.1508 63.4988 6.75466 63.4402 6.67133C62.6569 5.5512 59.6469 1.62802 59.0714 0.97598L58.3137 0.118126L57.3111 1.70588ZM30.0774 69.0392C26.5564 70.3447 25.3182 72.6551 25.284 77.9825L25.2656 80.8693L32.3914 80.9071L39.5176 80.9454L39.5278 78.9273C39.5338 77.8177 39.5291 76.448 39.5176 75.8834C39.4188 70.9708 34.4954 67.4014 30.0774 69.0392ZM0.237243 98.9066C-0.956516 106.61 2.39644 115.085 9.35505 121.952C9.44912 122.045 9.63468 122.243 9.76722 122.392C10.1294 122.8 10.5197 123.125 12.2527 124.46C13.1236 125.13 14.0078 125.842 14.2173 126.041C14.4268 126.24 14.6825 126.403 14.7855 126.403C14.8886 126.403 15.0472 126.498 15.1379 126.615C15.3392 126.873 19.4507 129.386 20.4294 129.849C20.8172 130.033 21.5505 130.386 22.0593 130.635C22.5681 130.884 23.3736 131.257 23.8495 131.465C24.3254 131.672 24.8384 131.906 24.9898 131.984C25.1416 132.062 25.4511 132.188 25.6786 132.262C25.9056 132.337 26.6184 132.606 27.2619 132.859C27.9058 133.112 28.5873 133.352 28.7767 133.392C28.9661 133.432 29.2449 133.524 29.3963 133.598C29.8367 133.812 32.8933 134.717 34.3021 135.049C35.0123 135.217 35.7802 135.418 36.0094 135.496C36.2386 135.573 36.7961 135.695 37.2489 135.766C37.7013 135.836 38.5983 136 39.2422 136.129C45.1507 137.312 55.8856 137.758 61.4811 137.053C69.365 136.059 75.8661 134.552 80.2084 132.71C80.3598 132.646 80.7938 132.479 81.1722 132.339C82.1077 131.994 82.7285 131.719 83.3339 131.38C83.614 131.224 83.9235 131.096 84.0215 131.096C84.1194 131.096 85.2032 130.568 86.4299 129.922C87.6566 129.277 88.7208 128.749 88.7948 128.749C88.8692 128.749 88.9504 128.692 88.9756 128.621C89.0009 128.551 89.3314 128.32 89.7098 128.107C90.0886 127.894 90.517 127.638 90.6619 127.538C90.8073 127.438 91.4269 127.011 92.0391 126.589C92.6514 126.167 93.2308 125.751 93.3265 125.664C93.4223 125.578 93.9183 125.204 94.4284 124.833C95.3502 124.163 96.328 123.311 97.3832 122.26C97.6872 121.958 97.9746 121.71 98.0225 121.709C98.1383 121.708 99.9687 119.703 99.9687 119.578C99.9687 119.523 100.127 119.347 100.32 119.185C100.513 119.023 100.932 118.529 101.25 118.088C102.511 116.335 103.007 115.606 103.223 115.184C103.348 114.943 103.494 114.712 103.547 114.671C103.766 114.506 105.577 110.576 105.697 110.003C105.743 109.788 105.931 109.118 106.116 108.513C106.871 106.048 107.242 101.391 106.876 98.9799L106.776 98.3201L106.465 99.6219C105.708 102.792 103.831 106.806 101.934 109.319C97.9686 114.569 93.2808 118.492 87.0247 121.795C85.0933 122.815 82.4724 124.056 82.2466 124.058C82.1859 124.058 81.9653 124.153 81.7562 124.269C79.9681 125.263 72.9266 127.349 68.3662 128.237C50.0451 131.803 28.6784 128.153 15.7638 119.251C15.2336 118.886 14.4593 118.352 14.0429 118.065C9.44826 114.902 4.7566 109.634 2.95869 105.62C2.67735 104.993 2.21174 103.985 1.92399 103.379C1.47376 102.434 0.527134 99.5177 0.376631 98.6134C0.347557 98.4381 0.291544 98.5555 0.237243 98.9066Z" fill="#2F89FC"/>
<path fill-rule="evenodd" clip-rule="evenodd" d="M30.9163 65.7003C27.2222 66.3077 24.2651 69.0816 23.1094 73.0239C22.61 74.726 22.6087 85.5375 23.1073 87.2486C23.9188 90.0326 25.697 92.322 27.9614 93.4977L28.7764 93.9207V94.9001C28.7768 96.068 28.9611 96.3403 29.7508 96.3403H30.2917V98.0734C30.2917 100.552 30.6777 102.456 31.3995 103.536C31.5474 103.757 31.6684 103.988 31.6684 104.048C31.6684 104.355 32.4526 105.186 33.0417 105.504C35.9915 107.095 41.1103 107.077 43.4033 105.466C44.3376 104.81 47.0389 100.824 46.8084 100.442C46.7366 100.324 46.69 99.9867 46.7041 99.6934C46.7281 99.203 46.1983 98.4171 45.831 98.398C45.6831 98.3907 45.439 97.5055 45.439 96.9787C45.439 96.069 45.3026 96.2097 43.3636 99.1265C40.9624 102.739 40.271 103.1 36.8847 102.51C34.6028 102.111 34.1239 101.42 34.0512 98.4194C34.0063 96.5712 33.9956 96.5389 33.3898 96.4469C33.1627 96.4127 33.5065 96.3745 34.1543 96.3627C35.5981 96.3353 35.6614 96.2766 35.6644 94.9548L35.6666 93.9207L36.4392 93.5646C37.2062 93.2108 38.807 91.9687 39.285 91.3562C41.5614 88.4407 41.7521 87.5086 41.6897 79.6122C41.6366 72.9228 41.6593 73.115 40.6738 71.0118C38.9887 67.4155 34.696 65.0787 30.9163 65.7003ZM33.9764 68.6987C37.9049 69.6849 39.6553 72.61 39.6553 78.187V81.0893H32.426H25.1968L25.1998 78.0463C25.2036 74.7068 25.2819 74.1313 25.9189 72.7525C27.3881 69.5743 30.7427 67.8863 33.9764 68.6987Z" fill="white"/>
<path fill-rule="evenodd" clip-rule="evenodd" d="M55.9039 33.0645C54.8077 33.2252 52.6506 33.7589 50.8779 34.3075C50.4709 34.4337 48.516 35.1932 47.7109 35.5383C47.2688 35.7277 45.515 36.6703 44.2797 37.382C38.969 40.4418 32.4495 46.6645 27.6064 53.2964C27.379 53.6074 26.7282 54.4753 26.1604 55.2248C25.0659 56.6691 24.4241 57.5625 23.7507 58.5793C23.5236 58.9221 23.0563 59.5906 22.7125 60.0641C22.3688 60.5377 21.6005 61.7174 21.0049 62.685C20.4097 63.6531 19.7461 64.7286 19.5302 65.0755C19.3143 65.4225 19.1377 65.7463 19.1377 65.795C19.1377 65.8437 18.9915 66.0878 18.8127 66.3373C18.634 66.5873 18.2915 67.1874 18.0517 67.671C17.8122 68.155 17.495 68.7487 17.347 68.991C16.9439 69.6512 15.7373 72.1902 15.1169 73.6837C14.8154 74.4095 14.4259 75.3334 14.2511 75.7368C13.4592 77.5645 12.4369 81.1225 12.0598 83.3623C11.5022 86.6731 12.2637 95.5626 13.3403 98.3201C13.6811 99.1926 14.0428 100.25 14.0433 100.376C14.0437 100.455 14.2292 100.817 14.4559 101.18C14.942 101.958 15.0237 101.645 14.6688 100.363C14.0899 98.2705 13.7093 95.5508 13.3468 90.9145C13.1026 87.7918 14.2211 82.0591 15.7693 78.5007C15.8801 78.2466 15.9703 77.9953 15.9703 77.942C15.9703 77.7471 18.4373 72.4925 18.7815 71.9539C18.9773 71.6479 19.1377 71.3624 19.1377 71.3196C19.1377 71.1525 20.812 68.201 21.0019 68.033C21.1126 67.9351 21.2032 67.7939 21.2032 67.7192C21.2032 67.5895 22.3192 65.7649 23.2504 64.3716C23.4933 64.0087 23.8512 63.4545 24.0457 63.1399C24.2402 62.8257 24.8038 62.0007 25.2976 61.3072C25.7914 60.6132 26.3105 59.8806 26.4507 59.6789C27.0215 58.8584 30.3446 54.3838 30.6357 54.0441C30.7114 53.9558 31.015 53.5869 31.31 53.225C32.2096 52.1221 35.2923 48.6352 35.7148 48.2427C35.9333 48.04 36.46 47.5369 36.8854 47.1248C38.6692 45.3968 40.5262 43.8072 42.2757 42.51C44.0775 41.1736 44.405 40.9523 45.4384 40.3722C45.7035 40.2233 45.9515 40.0644 45.9896 40.0188C46.9507 38.8614 53.4698 36.4167 57.3063 35.7746C61.343 35.0989 68.5808 35.7241 70.9914 36.9558C71.2992 37.1133 71.6293 37.2422 71.7247 37.2422C72.3297 37.2422 74.8489 38.33 78.0051 39.9537C79.1412 40.5384 80.1635 41.0615 80.2772 41.1162C80.6526 41.2965 81.4744 41.8493 82.7242 42.7618C83.4027 43.2567 84.0826 43.7043 84.2348 43.7558C84.3874 43.8072 84.6901 44.0149 84.9078 44.2175C87.5069 46.6358 90.2527 45.4742 88.7413 42.5956C88.1273 41.4263 87.9319 41.337 87.5822 42.0678C87.1713 42.9252 85.8467 43.3824 85.0531 42.9403C84.5999 42.688 83.2629 41.7468 83.056 41.5346C82.9559 41.4322 82.8208 41.3479 82.7558 41.3479C82.6908 41.3479 82.5561 41.2637 82.4561 41.1604C82.3556 41.057 82.0572 40.8352 81.7921 40.6681C81.527 40.5006 80.6283 39.9241 79.7954 39.3864C78.962 38.8486 78.1877 38.3496 78.074 38.2767C77.9603 38.2043 77.4647 37.9347 76.9726 37.6784C76.48 37.4216 75.9845 37.1552 75.8707 37.0865C73.0993 35.409 67.1852 33.4237 63.6843 32.9953C62.0023 32.7894 57.509 32.8295 55.9039 33.0645ZM60.3104 75.8716C59.8183 75.9818 59.1987 76.1726 58.9337 76.2955C58.6686 76.4184 58.2551 76.5965 58.0148 76.6907C57.648 76.8351 56.8741 77.3177 55.9039 78.0076C55.7906 78.0882 55.4075 78.3559 55.0535 78.6018C54.1736 79.2133 51.1849 82.4116 50.5504 83.4206C49.3956 85.257 49.372 85.4173 49.2942 91.9482C49.2173 98.428 49.3015 97.9017 48.1381 99.1771C47.088 100.328 47.5352 101.529 49.0142 101.529C50.6329 101.529 50.724 101.182 50.8189 94.6542C50.8954 89.4156 51.0353 87.6885 51.3833 87.6885C51.4461 87.6885 51.4975 87.5933 51.4975 87.4767C51.4975 86.5155 54.7444 82.6912 56.8681 81.1512C57.2845 80.8493 57.6561 80.5584 57.6941 80.5055C57.9836 80.0994 60.5734 78.8973 61.9394 78.5344C62.9476 78.2666 65.3758 78.2243 66.0949 78.462C66.3596 78.5494 66.747 78.6469 66.9556 78.6792C67.4293 78.752 69.8729 80.0079 70.0948 80.2924C70.185 80.4081 70.3287 80.5046 70.4142 80.5074C70.6233 80.5137 71.3266 81.1826 71.3266 81.3757C71.3266 81.4599 71.4121 81.5291 71.5164 81.5291C71.6208 81.5291 71.7807 81.6248 71.8713 81.7413C71.9624 81.8583 72.2497 82.0874 72.5097 82.2508L72.9821 82.5477L72.7542 82.0751C72.4836 81.5132 69.0443 77.8632 68.786 77.8632C68.73 77.8632 68.4987 77.7225 68.2721 77.5509C66.2296 76.0018 62.8805 75.2956 60.3104 75.8716ZM91.8484 90.7333C91.8463 90.9159 91.9027 91.1795 91.9745 91.3198C92.3499 92.0533 93.2636 95.5704 93.4312 96.9273C93.486 97.3708 93.5788 97.8689 93.6378 98.0346C93.9546 98.928 94.2239 102.621 94.2299 106.166C94.2372 110.261 94.1778 110.677 93.4843 111.384L93.0652 111.812L57.2375 111.854C33.3495 111.881 21.0506 111.845 20.3323 111.745C18.7935 111.531 16.4988 110.892 15.5838 110.424C15.1528 110.204 14.6294 109.979 14.4212 109.925C14.213 109.871 14.0428 109.761 14.0428 109.683C14.0428 109.603 13.9731 109.539 13.888 109.539C13.6345 109.539 11.7318 108.258 10.8267 107.478C10.3636 107.079 9.93394 106.753 9.87237 106.753C9.52134 106.753 11.1863 108.792 12.4634 109.927C13.6909 111.017 13.9663 111.23 14.5247 111.523C14.8274 111.682 15.3234 111.983 15.6261 112.193C16.9366 113.1 19.664 114.017 22.0293 114.346C24.0577 114.628 94.2368 114.462 94.6827 114.175C95.947 113.36 96.2284 108.882 95.4121 102.573C94.947 98.9745 93.6792 93.9207 92.9477 92.7477C92.8976 92.6671 92.7809 92.3206 92.689 91.9777C92.5971 91.6349 92.4624 91.3544 92.3893 91.3544C92.3166 91.3544 92.2572 91.2683 92.2572 91.1627C92.2572 91.0571 92.1665 90.8426 92.0553 90.686C91.8582 90.4087 91.8527 90.4096 91.8484 90.7333ZM107.767 104.724C107.411 105.88 106.819 107.492 106.452 108.305C106.085 109.119 105.738 109.94 105.682 110.13C105.48 110.806 103.727 114.535 103.547 114.671C103.494 114.712 103.348 114.943 103.223 115.184C103.007 115.606 102.511 116.335 101.25 118.088C100.932 118.529 100.513 119.023 100.32 119.185C100.127 119.347 99.9687 119.523 99.9687 119.578C99.9687 119.703 98.1383 121.708 98.0224 121.709C97.9745 121.71 97.6872 121.958 97.3832 122.26C96.328 123.311 95.3502 124.163 94.4283 124.833C93.9182 125.204 93.4223 125.578 93.3265 125.664C93.2307 125.751 92.6514 126.167 92.0391 126.589C91.4268 127.011 90.8073 127.438 90.6619 127.538C90.517 127.638 90.0885 127.894 89.7097 128.107C89.3313 128.32 89.0008 128.551 88.9756 128.621C88.9504 128.692 88.8691 128.749 88.7947 128.749C88.7208 128.749 87.6566 129.277 86.4299 129.922C85.2032 130.568 84.1193 131.096 84.0214 131.096C83.9235 131.096 83.6139 131.224 83.3339 131.38C82.7285 131.719 82.1076 131.994 81.1721 132.339C80.7937 132.479 80.3597 132.646 80.2084 132.71C75.866 134.552 69.3649 136.059 61.4811 137.053C55.8855 137.758 45.1507 137.312 39.2422 136.129C38.5983 136 37.7012 135.836 37.2489 135.766C36.7961 135.695 36.2385 135.573 36.0094 135.496C35.7802 135.418 35.0123 135.217 34.3021 135.049C32.8933 134.717 29.8366 133.812 29.3962 133.598C29.2449 133.524 28.9661 133.432 28.7767 133.392C28.5873 133.352 27.9057 133.112 27.2618 132.859C26.6183 132.606 25.9056 132.337 25.6786 132.262C25.4511 132.188 25.1415 132.062 24.9898 131.984C24.8384 131.906 24.3253 131.672 23.8494 131.465C23.3736 131.257 22.568 130.884 22.0592 130.635C21.5504 130.386 20.8172 130.033 20.4294 129.849C19.4507 129.386 15.3392 126.873 15.1378 126.615C15.0472 126.498 14.8885 126.403 14.7855 126.403C14.6825 126.403 14.4268 126.24 14.2173 126.041C14.0078 125.842 13.1236 125.13 12.2526 124.46C10.5197 123.125 10.1293 122.8 9.76719 122.392C9.63464 122.243 9.44908 122.045 9.35501 121.952C8.19119 120.803 6.51086 118.949 5.94605 118.191C5.55611 117.666 5.15762 117.137 5.06099 117.015C4.96436 116.893 4.61076 116.349 4.27555 115.807C3.50209 114.559 3.41529 114.638 4.04638 116.016C6.47067 121.311 11.4402 126.916 16.7814 130.378C17.3274 130.732 18.0487 131.201 18.3835 131.419C22.2957 133.967 27.7074 136.381 33.3897 138.113C35.2701 138.686 38.0967 139.361 40.4919 139.807C74.9468 146.233 108.664 129.315 108.708 105.579C108.715 102.179 108.587 102.063 107.767 104.724ZM1.9248 103.085C1.9248 103.482 2.36391 104.391 2.44002 104.151C2.51185 103.925 2.22624 102.974 2.05264 102.86C1.98252 102.813 1.9248 102.915 1.9248 103.085Z" fill="#616463"/>
<path fill-rule="evenodd" clip-rule="evenodd" d="M58.107 0.165025C58.107 0.258824 58.1498 0.290698 58.2019 0.235147C58.2541 0.179595 58.579 0.415915 58.9237 0.760605C59.5124 1.34936 59.4008 1.17041 58.5645 0.185059C58.3627 -0.0526263 58.107 -0.0635545 58.107 0.165025ZM56.4074 2.96352C55.9735 3.60783 55.9589 3.64972 56.3189 3.21988C56.7243 2.73677 57.0693 2.19355 56.971 2.19355C56.9466 2.19355 56.6931 2.54006 56.4074 2.96352ZM61.8243 4.50302C62.6554 5.61222 63.3827 6.588 63.4409 6.67133C63.499 6.75466 63.7953 7.1508 64.0993 7.55104C64.4038 7.95174 64.8373 8.53457 65.0635 8.84693C65.2892 9.15883 65.6291 9.62783 65.8186 9.88874C66.0075 10.1496 66.7203 11.1345 67.4018 12.078C68.0838 13.021 68.8273 14.0437 69.0544 14.3506C69.5439 15.0108 70.786 16.7256 71.6681 17.9582C72.0144 18.4418 72.5625 19.2008 72.8866 19.6443C73.2103 20.0883 74.0864 21.309 74.8329 22.3572C75.5799 23.4059 76.3512 24.4677 76.547 24.7172C76.7428 24.9668 76.9964 25.3219 77.1101 25.5068C77.2234 25.6917 77.568 26.1807 77.8759 26.5932C78.1833 27.0058 78.8067 27.8714 79.2607 28.5166C81.4653 31.6484 82.1289 32.5495 82.231 32.5495C82.2926 32.5495 82.3426 32.6205 82.3426 32.7079C82.3426 32.962 83.3252 34.1677 83.4599 34.079C83.527 34.0348 83.5821 33.9255 83.5821 33.8363C83.5821 33.7466 83.5428 33.7156 83.4949 33.7666C83.3936 33.8741 82.8933 33.2398 82.8933 33.0039C82.8933 32.9165 82.7693 32.7626 82.618 32.6619C82.4666 32.5613 82.3426 32.3519 82.3426 32.1961C82.3426 32.0409 82.3042 31.9548 82.2576 32.0044C82.2105 32.0545 82.0793 31.9962 81.9655 31.8756C81.8518 31.7545 81.7962 31.6156 81.842 31.5673C81.8877 31.5186 81.7842 31.3397 81.6119 31.1698C81.44 31 80.9646 30.3994 80.5558 29.8352C79.3018 28.1045 78.9833 27.6797 78.5903 27.2138C78.3821 26.9666 78.2115 26.6929 78.2115 26.6051C78.2115 26.5172 78.0255 26.2554 77.7985 26.0236C77.5714 25.7918 77.3855 25.5209 77.3855 25.4216C77.3855 25.3228 77.3277 25.2195 77.2576 25.1926C77.1875 25.1657 76.8164 24.6817 76.4333 24.1171C76.0497 23.5525 75.6735 23.0111 75.597 22.9136C75.5204 22.8162 75.4576 22.6637 75.4576 22.5749C75.4576 22.4861 75.3956 22.4542 75.3199 22.5038C75.2442 22.5539 75.1822 22.5366 75.1822 22.4656C75.1822 22.395 74.9612 22.0617 74.6909 21.7257C74.3955 21.3582 74.2399 21.0408 74.2997 20.9293C74.3549 20.8277 74.3506 20.7918 74.2907 20.8496C74.2305 20.9074 73.9581 20.6438 73.6857 20.264C73.4134 19.8843 72.9965 19.3538 72.7588 19.0856C72.5215 18.8174 72.2414 18.4231 72.1367 18.2091C72.0319 17.9951 71.8532 17.7146 71.7395 17.5853C71.0575 16.8089 70.7749 16.3914 70.8476 16.2666C70.8925 16.1888 70.8394 16.125 70.7296 16.125C70.6197 16.125 70.4987 16.0394 70.4611 15.9347C70.4234 15.83 70.0792 15.3091 69.697 14.7777C69.3143 14.2459 69.0441 13.76 69.0967 13.6981C69.1493 13.6357 69.1147 13.6325 69.0202 13.6903C68.9124 13.7564 68.8479 13.7067 68.8479 13.5588C68.8479 13.4281 68.7859 13.362 68.7102 13.4121C68.6345 13.4618 68.5725 13.3998 68.5725 13.2742C68.5725 13.148 68.5105 13.0456 68.4348 13.0456C68.3591 13.0456 68.2971 12.9427 68.2971 12.8166C68.2971 12.6909 68.2352 12.629 68.1595 12.6786C68.0838 12.7287 68.0218 12.6991 68.0218 12.6126C68.0218 12.5265 67.8379 12.2515 67.6135 12.0015C67.389 11.7515 67.2188 11.4961 67.2351 11.4346C67.2509 11.3731 67.0615 11.0831 66.8135 10.7908C66.5655 10.4984 66.409 10.2589 66.4655 10.2589C66.5219 10.2589 66.3829 10.0777 66.1559 9.85595C65.9293 9.63421 65.5334 9.13926 65.276 8.75586C65.0186 8.37292 64.7526 8.0592 64.6855 8.0592C64.618 8.0592 64.5962 8.00182 64.6372 7.93125C64.6782 7.86067 64.4495 7.50824 64.1288 7.14807C63.4268 6.35897 63.0642 5.88815 63.0642 5.76476C63.0642 5.71467 62.924 5.5339 62.7521 5.36315C62.5802 5.19285 62.2552 4.78942 62.0299 4.46659C61.8046 4.14376 61.3881 3.61602 61.1047 3.29319C60.8208 2.97081 60.5882 2.65754 60.5873 2.59698C60.5865 2.53642 60.5245 2.48679 60.4496 2.48679C60.3744 2.48679 60.9931 3.39427 61.8243 4.50302ZM54.8627 5.07811C54.6506 5.37453 54.5471 5.57033 54.6331 5.51386C54.8096 5.39775 55.4057 4.5399 55.3099 4.5399C55.2757 4.5399 55.0747 4.78214 54.8627 5.07811ZM47.5047 14.7312C47.3268 14.9325 47.2075 15.1219 47.2396 15.152C47.2712 15.182 47.4414 15.0172 47.618 14.7859C48.0122 14.2682 47.9425 14.2345 47.5047 14.7312ZM38.7533 25.821C38.454 26.1529 38.333 26.3428 38.4844 26.2426C38.7413 26.0732 39.4631 25.2172 39.3493 25.2172C39.3211 25.2172 39.053 25.4886 38.7533 25.821ZM36.1259 29.1331C35.6813 29.674 35.3884 30.0702 35.4752 30.0137C35.6697 29.8871 37.0914 28.15 37.0003 28.15C36.9644 28.15 36.5706 28.5921 36.1259 29.1331ZM83.5137 34.1614C83.4098 34.3399 83.4205 34.3581 84.6416 36.0715C85.1864 36.8365 85.9107 37.8578 86.251 38.3418C86.5909 38.8258 86.9633 39.3235 87.0783 39.4478C87.3447 39.7356 87.8437 40.8999 87.8475 41.2428C87.8492 41.3862 87.9416 41.541 88.0528 41.5865C88.1639 41.6321 88.4735 42.0861 88.7411 42.5956C90.2526 45.4742 87.5068 46.6358 84.9076 44.2175C84.69 44.0149 84.3872 43.8072 84.2346 43.7558C84.0824 43.7043 83.4026 43.2567 82.724 42.7618C81.4742 41.8493 80.6525 41.2965 80.2771 41.1162C80.1633 41.0615 79.141 40.5384 78.005 39.9537C74.8487 38.33 72.3295 37.2422 71.7245 37.2422C71.6292 37.2422 71.2991 37.1133 70.9912 36.9558C68.5806 35.7241 61.3428 35.0989 57.3062 35.7746C53.4697 36.4167 46.9506 38.8614 45.9894 40.0188C45.9514 40.0644 45.7034 40.2233 45.4383 40.3722C44.4049 40.9523 44.0773 41.1736 42.2756 42.51C40.526 43.8072 38.6691 45.3968 36.8853 47.1248C36.4599 47.5369 35.9331 48.04 35.7146 48.2427C35.2922 48.6352 32.2094 52.1221 31.3099 53.225C31.0148 53.5869 30.7113 53.9558 30.6356 54.0441C30.3444 54.3838 27.0214 58.8584 26.4506 59.6789C26.3103 59.8806 25.7913 60.6132 25.2974 61.3072C24.8036 62.0007 24.2401 62.8257 24.0455 63.1399C23.851 63.4545 23.4931 64.0087 23.2503 64.3716C22.319 65.7649 21.2031 67.5895 21.2031 67.7192C21.2031 67.7939 21.1124 67.9351 21.0017 68.033C20.8119 68.201 19.1375 71.1525 19.1375 71.3196C19.1375 71.3624 18.9772 71.6479 18.7814 71.9539C18.4372 72.4925 15.9701 77.7471 15.9701 77.942C15.9701 77.9953 15.8799 78.2466 15.7692 78.5007C14.221 82.0592 13.1025 87.7918 13.3466 90.9145C13.7105 95.5699 14.0807 98.2095 14.6789 100.41C14.7943 100.834 14.8739 101.329 14.8559 101.51C14.7511 102.579 18.0417 106.446 19.067 106.457C19.1422 106.458 18.7989 106.17 18.3042 105.817C17.3264 105.118 16.6589 104.31 16.6589 103.825C16.6589 103.655 16.5657 103.479 16.4524 103.433C16.3387 103.386 16.2459 103.266 16.2459 103.166C16.2459 103.067 16.1467 102.774 16.0261 102.516C15.9051 102.258 15.7953 101.967 15.7811 101.87C15.7675 101.772 15.7179 101.627 15.6708 101.546C15.6238 101.466 15.4848 100.938 15.3617 100.373C15.239 99.8086 15.0821 99.1488 15.0141 98.9066C14.8362 98.2769 14.6066 96.9737 14.5237 96.1204C14.0931 91.7064 13.9948 88.6265 14.2214 86.6617C14.4262 84.8841 15.791 79.9614 16.437 78.6696C16.558 78.4278 16.6577 78.1515 16.6581 78.0558C16.6598 77.6993 20.0298 70.8711 20.4805 70.3106C20.5455 70.23 20.613 70.1161 20.6302 70.0569C20.6853 69.8707 21.1193 69.0684 21.5498 68.3576C21.7786 67.9801 22.1745 67.3085 22.4298 66.8659C22.685 66.4229 22.9698 65.994 23.0626 65.9125C23.1553 65.8314 23.5342 65.2741 23.904 64.6744C25.1803 62.6058 25.5095 62.0981 25.6288 62.0161C25.6946 61.9706 26.0281 61.5089 26.3693 60.9894C26.711 60.4703 27.2027 59.7813 27.4626 59.459C27.7226 59.1361 28.1091 58.5961 28.3216 58.2582C28.5341 57.9204 29.1878 57.0521 29.7749 56.3294C30.3619 55.6064 30.8421 54.9744 30.8421 54.9252C30.8421 54.876 31.052 54.5891 31.3086 54.2877C31.5651 53.9863 32.2159 53.2245 32.7546 52.5943C33.2933 51.9646 33.7337 51.3872 33.7337 51.3112C33.7337 51.2356 33.7803 51.185 33.8372 51.1992C33.894 51.2137 34.6842 50.4356 35.5928 49.4698C37.2521 47.7072 38.2762 46.7009 39.3814 45.7474C39.7085 45.4651 40.0728 45.1186 40.1904 44.9774C40.3084 44.8363 40.4537 44.7211 40.5136 44.7211C40.6107 44.7211 41.6069 43.917 42.536 43.0892C42.7194 42.9257 43.1068 42.6825 43.3967 42.5487C43.6866 42.4148 43.9239 42.2573 43.9239 42.1981C43.9239 42.0647 46.1211 40.6927 47.5038 39.9628C48.0721 39.6632 48.6296 39.365 48.7434 39.3008C49.5502 38.8441 51.6157 37.9999 52.8745 37.6128C53.2152 37.5081 53.68 37.3437 53.907 37.2476C56.1954 36.281 63.213 35.858 66.2316 36.505C66.5724 36.5783 67.4087 36.7491 68.0906 36.8847C68.7722 37.0209 69.4845 37.1957 69.6739 37.2736C69.8633 37.3519 70.1733 37.4466 70.3627 37.4849C70.8989 37.5928 73.1231 38.4042 73.7452 38.7188C74.053 38.8746 74.3459 39.0016 74.3955 39.0016C74.4451 39.0016 74.8128 39.1591 75.2126 39.3518C75.6123 39.5444 76.2494 39.8508 76.6278 40.0325C78.4492 40.9063 79.8166 41.6699 80.5323 42.2126C80.7559 42.3825 80.9774 42.5214 81.024 42.5214C81.1266 42.5214 81.8219 42.9876 83.6335 44.2708C86.3472 46.1932 86.7128 46.3753 87.7193 46.302C89.9045 46.1431 90.5933 43.3091 88.9057 41.4213C88.7617 41.2601 88.5427 40.9564 88.4192 40.746C88.2956 40.5361 87.9899 40.1805 87.7398 39.9564C87.4854 39.7283 87.3165 39.4606 87.3567 39.3486C87.3964 39.2384 87.3486 39.1482 87.2498 39.1482C87.1515 39.1482 86.9843 38.967 86.8787 38.7452C86.7726 38.5235 86.5452 38.1843 86.3733 37.9921C86.2014 37.7995 86.0607 37.5591 86.0607 37.4576C86.0607 37.3565 85.9675 37.2354 85.8542 37.1889C85.7405 37.1425 85.6473 37.0072 85.6473 36.8884C85.6473 36.7695 85.5096 36.5692 85.3416 36.444C85.1731 36.3183 85.0791 36.2154 85.1325 36.2154C85.1859 36.2154 84.9563 35.9117 84.6224 35.5401C84.2761 35.1554 84.0465 34.777 84.0884 34.6604C84.1324 34.5388 84.0743 34.4555 83.9451 34.4555C83.8088 34.4555 83.7579 34.374 83.8075 34.2356C83.8951 33.9929 83.648 33.9301 83.5137 34.1614ZM29.9408 36.8388L29.3961 37.4621L29.9814 36.8825C30.5257 36.3433 30.63 36.2154 30.5257 36.2154C30.5035 36.2154 30.2401 36.4959 29.9408 36.8388ZM27.8637 39.3991C27.4947 39.8595 27.2647 40.1891 27.3527 40.1317C27.5451 40.0061 28.6919 38.5617 28.5995 38.5617C28.564 38.5617 28.2327 38.9388 27.8637 39.3991ZM26.6336 40.945L26.2291 41.4213L26.6768 40.9905C26.9226 40.7537 27.124 40.5393 27.124 40.5142C27.124 40.4009 27.0107 40.5006 26.6336 40.945ZM25.3231 42.5578C24.9152 43.0618 24.6912 43.3824 24.8246 43.2695C25.105 43.0327 26.2158 41.6412 26.1248 41.6412C26.0914 41.6412 25.7306 42.0537 25.3231 42.5578ZM23.1908 45.1974L22.7864 45.6741L23.234 45.2434C23.6513 44.8422 23.745 44.7211 23.6385 44.7211C23.615 44.7211 23.4136 44.9355 23.1908 45.1974ZM21.4874 47.2532C21.0953 47.7682 21.0799 47.8115 21.3968 47.5073C21.7264 47.1913 22.1172 46.6221 21.9996 46.6299C21.9778 46.6317 21.7474 46.9122 21.4874 47.2532ZM20.5848 48.3856C20.3676 48.6265 20.2193 48.8546 20.2543 48.892C20.2894 48.9293 20.4891 48.7321 20.6977 48.4535C21.1642 47.831 21.112 47.7996 20.5848 48.3856ZM62.0705 70.199C62.4707 70.2286 63.0903 70.2286 63.4477 70.1985C63.8047 70.1685 63.4776 70.1439 62.72 70.1444C61.9628 70.1448 61.6703 70.1694 62.0705 70.199ZM65.2349 70.3411C65.406 70.3761 65.6539 70.3748 65.7856 70.3383C65.9173 70.3014 65.7771 70.2728 65.4739 70.2746C65.1712 70.2759 65.0635 70.306 65.2349 70.3411ZM5.65813 72.6C5.57305 72.8591 5.52772 73.0968 5.55723 73.1282C5.58673 73.1596 5.68036 72.9734 5.76502 72.7143C5.85011 72.4552 5.89543 72.217 5.86593 72.1861C5.83643 72.1547 5.74279 72.3409 5.65813 72.6ZM52.3182 73.4742L51.8415 73.9246L52.358 73.5302C52.8142 73.1815 52.963 73.0239 52.8347 73.0239C52.8129 73.0239 52.5807 73.2265 52.3182 73.4742ZM50.2539 75.3334L49.3629 76.3233L50.2924 75.3743C50.8038 74.8525 51.2219 74.4068 51.2219 74.3844C51.2219 74.2765 51.0817 74.414 50.2539 75.3334ZM25.2337 75.9567C25.2337 76.3196 25.2607 76.4681 25.2936 76.2864C25.3265 76.1052 25.3265 75.8083 25.2936 75.6266C25.2607 75.4454 25.2337 75.5938 25.2337 75.9567ZM39.555 76.25C39.555 76.6129 39.5815 76.7613 39.6144 76.5801C39.6474 76.3984 39.6474 76.1015 39.6144 75.9198C39.5815 75.7386 39.555 75.8871 39.555 76.25ZM81.2408 76.2964C81.2408 76.3324 81.5974 76.6461 82.0327 76.994C82.4683 77.3423 82.7501 77.5285 82.6586 77.4079C82.4718 77.1611 81.2408 76.1962 81.2408 76.2964ZM39.5473 78.9287L39.5174 80.9477L32.357 80.9085C28.4187 80.8871 25.1961 80.919 25.1961 80.9791C25.1965 81.1917 39.5182 81.1111 39.5948 80.898C39.6328 80.7933 39.6444 79.8526 39.6204 78.8085L39.5772 76.9097L39.5473 78.9287ZM47.9695 78.3395C47.4957 79.196 47.4649 79.2693 47.7061 78.9629C47.9857 78.6082 48.2269 78.1565 48.1366 78.1565C48.1007 78.1565 48.0255 78.2389 47.9695 78.3395ZM61.8251 78.5508C60.539 78.9087 57.9638 80.1272 57.694 80.5055C57.6559 80.5584 57.2844 80.8493 56.8679 81.1512C54.7442 82.6912 51.4973 86.5155 51.4973 87.4767C51.4973 87.5933 51.446 87.6885 51.3831 87.6885C51.0351 87.6885 50.8953 89.4156 50.8188 94.6542C50.7238 101.182 50.6328 101.529 49.014 101.529C47.6261 101.529 47.066 100.286 48.0178 99.3178L48.5368 98.7896L48.0721 98.8848C47.8164 98.9371 47.4867 98.9799 47.3392 98.9799C47.1011 98.9799 47.0942 99.0045 47.2781 99.2003C47.4431 99.3761 47.4551 99.5168 47.3388 99.897C46.8672 101.438 47.3102 102.11 48.881 102.236C49.7456 102.305 50.0466 102.188 50.6092 101.563C51.419 100.662 51.4973 100.036 51.4973 94.4561C51.4973 87.8998 51.6871 87.2946 54.7425 84.0954C55.6669 83.1278 56.5079 82.2691 56.611 82.188C56.7144 82.1065 57.0509 81.8301 57.3583 81.5738C57.6662 81.3174 58.1002 81.0251 58.3225 80.9235C58.5448 80.822 58.8198 80.6608 58.9335 80.5652C61.0927 78.7457 66.2051 78.5189 68.5276 80.1395C68.6986 80.2588 68.903 80.3562 68.9817 80.3562C69.2438 80.3562 72.0148 82.6461 72.0148 82.8624C72.0148 82.9357 72.0879 82.9958 72.1773 82.9958C72.4449 82.9958 74.9069 86.0274 74.9069 86.3571C74.9069 86.444 74.9586 86.5151 75.0223 86.5151C75.086 86.5151 75.2207 86.7956 75.3216 87.1384C75.5084 87.7723 75.7329 88.178 75.7329 87.882C75.7329 87.4717 74.4746 84.3754 74.2236 84.1687C74.1749 84.1287 73.9936 83.8482 73.8209 83.5454C73.6485 83.243 73.4467 82.9958 73.3728 82.9958C73.2988 82.9958 73.2736 82.9348 73.3168 82.8601C73.3599 82.7859 73.1149 82.5755 72.7725 82.3934C72.43 82.2112 72.0482 81.9426 71.9233 81.796C71.7989 81.6493 71.6133 81.5291 71.5116 81.5291C71.4098 81.5291 71.3264 81.4599 71.3264 81.3757C71.3264 81.1826 70.6231 80.5137 70.414 80.5074C70.3285 80.5046 70.1848 80.4081 70.0946 80.2924C69.8727 80.0079 67.4292 78.752 66.9555 78.6792C66.7468 78.6469 66.3594 78.5494 66.0948 78.462C65.4252 78.2407 62.7384 78.2967 61.8251 78.5508ZM84.2017 78.8895C84.4976 79.2124 84.7703 79.476 84.8084 79.476C84.846 79.476 84.6352 79.2124 84.3394 78.8895C84.0435 78.5667 83.7703 78.3031 83.7326 78.3031C83.6946 78.3031 83.9058 78.5667 84.2017 78.8895ZM85.9363 80.7227C87.806 82.8806 91.1556 88.2859 91.1556 89.1451C91.1556 89.3327 91.7217 90.3445 91.9825 90.6218C92.1334 90.7829 92.257 91.0133 92.257 91.1345C92.257 91.2556 92.3164 91.3544 92.3891 91.3544C92.4622 91.3544 92.5969 91.6349 92.6888 91.9777C92.7808 92.3206 92.8975 92.6671 92.9475 92.7477C93.6791 93.9207 94.9468 98.9744 95.412 102.573C96.2282 108.882 95.9469 113.36 94.6826 114.175C94.2366 114.462 24.0575 114.628 22.0291 114.346C19.6639 114.017 16.9364 113.1 15.6259 112.193C15.3232 111.983 14.8272 111.682 14.5245 111.523C13.0695 110.76 9.18682 106.777 9.8705 106.748C9.93078 106.745 9.85981 106.646 9.71315 106.528C9.56607 106.409 9.50407 106.31 9.57548 106.307C9.64645 106.304 9.54427 106.156 9.34801 105.977C9.01067 105.671 7.43295 103.47 7.43295 103.306C7.43295 103.264 7.22174 102.91 6.96349 102.519C6.70567 102.128 6.36062 101.528 6.19686 101.186C6.03311 100.845 5.87149 100.594 5.83857 100.629C5.80522 100.665 5.99035 101.127 6.24988 101.657C6.50941 102.188 6.686 102.659 6.64196 102.706C6.59835 102.753 6.65308 102.907 6.76424 103.049C6.87498 103.19 7.20164 103.801 7.48982 104.406C7.77842 105.011 8.13116 105.642 8.2744 105.809C8.41721 105.975 8.53436 106.219 8.53436 106.35C8.53436 106.481 8.60063 106.632 8.68144 106.685C8.76268 106.738 9.20478 107.287 9.66484 107.904C10.8261 109.462 12.4474 110.974 14.4382 112.356C15.617 113.175 19.1362 114.668 19.5993 114.545C19.6643 114.528 19.7883 114.575 19.8751 114.649C20.4895 115.176 21.1159 115.184 58.1806 115.184C98.8398 115.184 94.9789 115.298 95.775 114.075C96.9213 112.313 96.643 103.286 95.2799 98.0269C95.0498 97.1399 94.8066 96.1445 94.7386 95.8158C94.4701 94.514 92.5405 89.7634 91.8653 88.7426C91.7221 88.5258 91.5613 88.1998 91.5088 88.0181C91.4557 87.8369 91.3681 87.6885 91.3138 87.6885C91.2595 87.6885 91.0979 87.474 90.9551 87.2117C90.8123 86.9495 90.613 86.6822 90.5121 86.618C90.4116 86.5533 90.3287 86.3885 90.3274 86.2514C90.3265 86.1139 89.955 85.573 89.5022 85.0489C89.0494 84.5243 88.7052 84.0194 88.7373 83.9265C88.7694 83.8336 88.6761 83.7248 88.5303 83.6838C88.3845 83.6433 88.2238 83.4953 88.1733 83.3555C88.0587 83.0377 87.3913 82.2263 86.0701 80.8006L85.047 79.696L85.9363 80.7227ZM3.19878 83.5089C3.20049 83.8313 3.22871 83.9461 3.26164 83.7639C3.29456 83.5813 3.29327 83.3172 3.25864 83.1775C3.22401 83.0372 3.19707 83.1861 3.19878 83.5089ZM3.06581 85.2688C3.06667 85.6718 3.0936 85.8193 3.12524 85.5967C3.15688 85.3735 3.15603 85.0439 3.1231 84.8636C3.09061 84.6828 3.06453 84.8654 3.06581 85.2688ZM3.06111 89.5212C3.06282 89.844 3.09061 89.9588 3.12353 89.7762C3.15688 89.5941 3.1556 89.33 3.12097 89.1897C3.08633 89.0495 3.0594 89.1988 3.06111 89.5212ZM76.3264 92.1612C76.3272 92.6448 76.3529 92.8251 76.3837 92.5615C76.414 92.2983 76.4136 91.9022 76.382 91.6818C76.3507 91.4614 76.3255 91.6772 76.3264 92.1612ZM4.00945 95.6072C4.00945 95.7284 4.06289 95.9592 4.12788 96.1204C4.20271 96.3053 4.24632 96.3326 4.24632 96.1937C4.24632 96.073 4.19287 95.8417 4.12788 95.6805C4.05349 95.4957 4.00945 95.4684 4.00945 95.6072ZM4.82139 98.3274C4.82395 98.4044 4.91973 98.632 5.03346 98.8333L5.24126 99.1998L5.15104 98.8333C5.05698 98.4508 4.81241 98.0756 4.82139 98.3274ZM0.0318154 100.08C0.0330981 100.402 0.0613157 100.517 0.0942381 100.335C0.127161 100.152 0.125879 99.8883 0.0916742 99.7481C0.0570415 99.6083 0.0301052 99.7572 0.0318154 100.08ZM5.43623 99.8601C5.49096 100.062 5.59785 100.293 5.67353 100.373C5.76545 100.471 5.77828 100.398 5.71158 100.153C5.65685 99.9516 5.54996 99.7207 5.47385 99.6402C5.38235 99.5423 5.36953 99.6156 5.43623 99.8601ZM107.029 101.18C107.029 101.543 107.055 101.691 107.088 101.51C107.121 101.328 107.121 101.031 107.088 100.85C107.055 100.668 107.029 100.817 107.029 101.18ZM1.75062 102.248C1.57618 102.531 1.57062 102.646 1.7177 102.939C1.88146 103.264 1.89899 103.269 1.95756 103.005C2.04222 102.624 2.4142 103.5 2.52067 104.333C2.59635 104.923 3.56692 107.077 3.94146 107.486C4.05263 107.607 3.98935 107.409 3.8008 107.046C3.34886 106.175 2.70623 104.266 2.48133 103.124C2.2637 102.022 2.04863 101.763 1.75062 102.248ZM108.331 102.009C108.292 102.077 108.038 102.935 107.766 103.916C107.042 106.529 106.711 107.417 106.553 107.173C106.461 107.032 106.448 107.07 106.509 107.302C106.557 107.484 106.543 107.632 106.478 107.632C106.376 107.632 106.227 108.052 105.828 109.465C105.462 110.76 107.265 106.352 107.766 104.724C108.587 102.063 108.714 102.179 108.708 105.579C108.664 129.315 74.9466 146.233 40.4918 139.807C38.0966 139.361 35.27 138.686 33.3895 138.113C27.7072 136.381 22.2955 133.967 18.3833 131.419C18.0485 131.201 17.3272 130.732 16.7812 130.378C12.9259 127.879 8.34238 123.292 5.89928 119.488C4.98899 118.07 4.75512 117.598 2.98757 113.609C2.16194 111.745 2.00674 111.612 2.69597 113.36C5.81591 121.265 11.8275 128.187 18.8622 131.975C19.2029 132.158 19.5125 132.349 19.5506 132.398C19.6899 132.581 22.4281 134.029 24.2324 134.874C28.5332 136.888 32.2146 138.143 37.8554 139.519C41.662 140.447 46.9775 141.125 52.1972 141.347C56.7144 141.54 62.5913 141.242 66.5758 140.617C74.3399 139.4 79.5806 137.878 86.1296 134.936C100.736 128.376 109.918 115.907 108.927 103.975C108.799 102.44 108.551 101.62 108.331 102.009ZM107.026 102.866C107.028 103.189 107.056 103.303 107.089 103.121C107.122 102.939 107.12 102.675 107.086 102.535C107.052 102.394 107.025 102.543 107.026 102.866ZM0.0318154 103.599C0.0330981 103.922 0.0613157 104.037 0.0942381 103.854C0.127161 103.672 0.125879 103.408 0.0916742 103.268C0.0570415 103.128 0.0301052 103.277 0.0318154 103.599ZM104.746 104.335C104.62 104.616 104.546 104.846 104.58 104.846C104.674 104.846 105.092 103.948 105.029 103.881C105 103.849 104.872 104.053 104.746 104.335ZM4.25401 108.036C4.32884 108.177 4.55288 108.49 4.7517 108.732C5.02577 109.065 5.00524 109.003 4.66661 108.476C4.22408 107.787 3.99106 107.538 4.25401 108.036ZM5.23827 109.465C5.57561 109.983 6.19387 110.726 6.18746 110.607C6.18447 110.544 5.92622 110.195 5.61409 109.832C5.30197 109.469 5.13266 109.304 5.23827 109.465ZM6.81298 111.445C7.10886 111.768 7.38207 112.032 7.4197 112.032C7.45775 112.032 7.24653 111.768 6.95066 111.445C6.65521 111.122 6.382 110.858 6.34395 110.858C6.30632 110.858 6.51754 111.122 6.81298 111.445ZM100.037 111.592C99.7415 111.914 99.5585 112.173 99.6308 112.166C99.7569 112.154 100.748 111.005 100.632 111.005C100.601 111.005 100.333 111.269 100.037 111.592ZM97.9667 113.828L97.2834 114.598L98.006 113.87C98.6781 113.194 98.7923 113.058 98.6897 113.058C98.6679 113.058 98.3425 113.405 97.9667 113.828ZM8.82339 113.681C8.85631 113.701 9.16074 113.982 9.50065 114.305L10.1181 114.891L9.57377 114.268C9.27447 113.925 8.96962 113.645 8.89651 113.645C8.82382 113.645 8.7909 113.661 8.82339 113.681ZM12.3901 116.77C12.3901 116.806 12.6176 117.021 12.8955 117.247C13.1734 117.473 13.3577 117.583 13.3047 117.491C13.1957 117.303 12.3901 116.668 12.3901 116.77ZM89.0426 120.554C88.7514 120.718 88.5423 120.883 88.5778 120.92C88.6432 120.99 89.6407 120.41 89.6407 120.302C89.6407 120.22 89.6309 120.224 89.0426 120.554ZM22.7175 123.177C22.9826 123.331 23.2618 123.458 23.3375 123.458C23.4132 123.458 23.2584 123.331 22.9933 123.177C22.7282 123.022 22.449 122.896 22.3733 122.896C22.2976 122.896 22.4524 123.022 22.7175 123.177ZM46.0942 129.293C46.2656 129.328 46.5132 129.327 46.6449 129.29C46.7766 129.253 46.6363 129.225 46.3336 129.226C46.0305 129.228 45.9227 129.258 46.0942 129.293ZM60.5531 129.293C60.7241 129.328 60.9721 129.327 61.1038 129.29C61.2355 129.253 61.0953 129.225 60.7921 129.226C60.4894 129.228 60.3817 129.258 60.5531 129.293ZM48.158 129.439C48.3286 129.474 48.6074 129.474 48.778 129.439C48.9482 129.405 48.8088 129.376 48.468 129.376C48.1272 129.376 47.9879 129.405 48.158 129.439ZM58.4875 129.44C58.6586 129.475 58.9066 129.473 59.0382 129.436C59.1699 129.4 59.0297 129.371 58.7265 129.373C58.4238 129.375 58.3161 129.405 58.4875 129.44ZM51.945 129.592C52.8347 129.618 54.291 129.618 55.1808 129.592C56.0709 129.567 55.3428 129.546 53.5629 129.546C51.7833 129.546 51.0552 129.567 51.945 129.592Z" fill="#728689"/>
<path d="M138.32 42.92V71H131.48V42.92H138.32ZM169.637 42.92L159.677 71H151.117L141.157 42.92H148.437L155.397 64.12L162.397 42.92H169.637ZM187.812 42.92V71H180.972V42.92H187.812ZM217.889 71H211.049L199.609 53.68V71H192.769V42.92H199.609L211.049 60.32V42.92H217.889V71ZM241.127 42.92V48.4H229.687V54.32H238.247V59.64H229.687V71H222.847V42.92H241.127ZM251.442 42.92V59.72C251.442 61.4 251.856 62.6933 252.682 63.6C253.509 64.5067 254.722 64.96 256.322 64.96C257.922 64.96 259.149 64.5067 260.002 63.6C260.856 62.6933 261.282 61.4 261.282 59.72V42.92H268.122V59.68C268.122 62.1867 267.589 64.3067 266.522 66.04C265.456 67.7733 264.016 69.08 262.202 69.96C260.416 70.84 258.416 71.28 256.202 71.28C253.989 71.28 252.002 70.8533 250.242 70C248.509 69.12 247.136 67.8133 246.122 66.08C245.109 64.32 244.602 62.1867 244.602 59.68V42.92H251.442ZM283.085 71.28C281.032 71.28 279.192 70.9467 277.565 70.28C275.939 69.6133 274.632 68.6267 273.645 67.32C272.685 66.0133 272.179 64.44 272.125 62.6H279.405C279.512 63.64 279.872 64.44 280.485 65C281.099 65.5333 281.899 65.8 282.885 65.8C283.899 65.8 284.699 65.5733 285.285 65.12C285.872 64.64 286.165 63.9867 286.165 63.16C286.165 62.4667 285.925 61.8933 285.445 61.44C284.992 60.9867 284.419 60.6133 283.725 60.32C283.059 60.0267 282.099 59.6933 280.845 59.32C279.032 58.76 277.552 58.2 276.405 57.64C275.259 57.08 274.272 56.2533 273.445 55.16C272.619 54.0667 272.205 52.64 272.205 50.88C272.205 48.2667 273.152 46.2267 275.045 44.76C276.939 43.2667 279.405 42.52 282.445 42.52C285.539 42.52 288.032 43.2667 289.925 44.76C291.819 46.2267 292.832 48.28 292.965 50.92H285.565C285.512 50.0133 285.179 49.3067 284.565 48.8C283.952 48.2667 283.165 48 282.205 48C281.379 48 280.712 48.2267 280.205 48.68C279.699 49.1067 279.445 49.7333 279.445 50.56C279.445 51.4667 279.872 52.1733 280.725 52.68C281.579 53.1867 282.912 53.7333 284.725 54.32C286.539 54.9333 288.005 55.52 289.125 56.08C290.272 56.64 291.259 57.4533 292.085 58.52C292.912 59.5867 293.325 60.96 293.325 62.64C293.325 64.24 292.912 65.6933 292.085 67C291.285 68.3067 290.112 69.3467 288.565 70.12C287.019 70.8933 285.192 71.28 283.085 71.28ZM304.375 42.92V71H297.535V42.92H304.375ZM322.612 71.28C319.972 71.28 317.545 70.6667 315.332 69.44C313.145 68.2133 311.398 66.5067 310.092 64.32C308.812 62.1067 308.172 59.6267 308.172 56.88C308.172 54.1333 308.812 51.6667 310.092 49.48C311.398 47.2933 313.145 45.5867 315.332 44.36C317.545 43.1333 319.972 42.52 322.612 42.52C325.252 42.52 327.665 43.1333 329.852 44.36C332.065 45.5867 333.798 47.2933 335.052 49.48C336.332 51.6667 336.972 54.1333 336.972 56.88C336.972 59.6267 336.332 62.1067 335.052 64.32C333.772 66.5067 332.038 68.2133 329.852 69.44C327.665 70.6667 325.252 71.28 322.612 71.28ZM322.612 65.04C324.852 65.04 326.638 64.2933 327.972 62.8C329.332 61.3067 330.012 59.3333 330.012 56.88C330.012 54.4 329.332 52.4267 327.972 50.96C326.638 49.4667 324.852 48.72 322.612 48.72C320.345 48.72 318.532 49.4533 317.172 50.92C315.838 52.3867 315.172 54.3733 315.172 56.88C315.172 59.36 315.838 61.3467 317.172 62.84C318.532 64.3067 320.345 65.04 322.612 65.04ZM365.897 71H359.057L347.617 53.68V71H340.777V42.92H347.617L359.057 60.32V42.92H365.897V71ZM399.532 42.92V48.4H392.092V71H385.252V48.4H377.812V42.92H399.532ZM427.284 42.92V71H420.444V59.44H409.804V71H402.964V42.92H409.804V53.92H420.444V42.92H427.284ZM439.062 48.4V54.08H448.222V59.36H439.062V65.52H449.422V71H432.222V42.92H449.422V48.4H439.062ZM468.183 71L462.343 60.4H460.703V71H453.863V42.92H465.343C467.556 42.92 469.436 43.3067 470.983 44.08C472.556 44.8533 473.729 45.92 474.503 47.28C475.276 48.6133 475.663 50.1067 475.663 51.76C475.663 53.6267 475.129 55.2933 474.063 56.76C473.023 58.2267 471.476 59.2667 469.423 59.88L475.903 71H468.183ZM460.703 55.56H464.943C466.196 55.56 467.129 55.2533 467.743 54.64C468.383 54.0267 468.703 53.16 468.703 52.04C468.703 50.9733 468.383 50.1333 467.743 49.52C467.129 48.9067 466.196 48.6 464.943 48.6H460.703V55.56ZM497.437 66.04H486.957L485.277 71H478.117L488.277 42.92H496.197L506.357 71H499.117L497.437 66.04ZM495.677 60.76L492.197 50.48L488.757 60.76H495.677ZM530.849 51.96C530.849 53.5867 530.475 55.08 529.729 56.44C528.982 57.7733 527.835 58.8533 526.289 59.68C524.742 60.5067 522.822 60.92 520.529 60.92H516.289V71H509.449V42.92H520.529C522.769 42.92 524.662 43.3067 526.209 44.08C527.755 44.8533 528.915 45.92 529.689 47.28C530.462 48.64 530.849 50.2 530.849 51.96ZM520.009 55.48C521.315 55.48 522.289 55.1733 522.929 54.56C523.569 53.9467 523.889 53.08 523.889 51.96C523.889 50.84 523.569 49.9733 522.929 49.36C522.289 48.7467 521.315 48.44 520.009 48.44H516.289V55.48H520.009ZM558.49 42.92L548.77 61.72V71H541.93V61.72L532.21 42.92H539.97L545.41 54.68L550.81 42.92H558.49ZM142.832 109.024H134.684L133.284 113H129.952L136.924 93.512H140.62L147.592 113H144.232L142.832 109.024ZM141.936 106.42L138.772 97.376L135.58 106.42H141.936ZM166.611 113H163.419L153.815 98.468V113H150.623V93.512H153.815L163.419 108.016V93.512H166.611V113ZM177.159 93.54C179.231 93.54 181.042 93.9413 182.591 94.744C184.159 95.528 185.363 96.6667 186.203 98.16C187.062 99.6347 187.491 101.361 187.491 103.34C187.491 105.319 187.062 107.036 186.203 108.492C185.363 109.948 184.159 111.068 182.591 111.852C181.042 112.617 179.231 113 177.159 113H170.803V93.54H177.159ZM177.159 110.396C179.436 110.396 181.182 109.78 182.395 108.548C183.608 107.316 184.215 105.58 184.215 103.34C184.215 101.081 183.608 99.3173 182.395 98.048C181.182 96.7787 179.436 96.144 177.159 96.144H173.995V110.396H177.159ZM223.268 93.54L217.5 113H213.888L209.8 98.272L205.46 113L201.876 113.028L196.36 93.54H199.748L203.78 109.388L208.148 93.54H211.732L215.792 109.304L219.852 93.54H223.268ZM229.093 96.116V101.828H235.813V104.432H229.093V110.396H236.653V113H225.901V93.512H236.653V96.116H229.093ZM243.776 110.424H250.356V113H240.584V93.54H243.776V110.424ZM256.218 110.424H262.798V113H253.026V93.54H256.218V110.424ZM281.455 113H278.263L268.659 98.468V113H265.467V93.512H268.659L278.263 108.016V93.512H281.455V113ZM288.839 96.116V101.828H295.559V104.432H288.839V110.396H296.399V113H285.647V93.512H296.399V96.116H288.839ZM306.742 113.196C305.436 113.196 304.26 112.972 303.214 112.524C302.169 112.057 301.348 111.404 300.75 110.564C300.153 109.724 299.854 108.744 299.854 107.624H303.27C303.345 108.464 303.672 109.155 304.25 109.696C304.848 110.237 305.678 110.508 306.742 110.508C307.844 110.508 308.702 110.247 309.318 109.724C309.934 109.183 310.242 108.492 310.242 107.652C310.242 106.999 310.046 106.467 309.654 106.056C309.281 105.645 308.805 105.328 308.226 105.104C307.666 104.88 306.882 104.637 305.874 104.376C304.605 104.04 303.569 103.704 302.766 103.368C301.982 103.013 301.31 102.472 300.75 101.744C300.19 101.016 299.91 100.045 299.91 98.832C299.91 97.712 300.19 96.732 300.75 95.892C301.31 95.052 302.094 94.408 303.102 93.96C304.11 93.512 305.277 93.288 306.602 93.288C308.488 93.288 310.028 93.764 311.222 94.716C312.436 95.6493 313.108 96.9373 313.238 98.58H309.71C309.654 97.8707 309.318 97.264 308.702 96.76C308.086 96.256 307.274 96.004 306.266 96.004C305.352 96.004 304.605 96.2373 304.026 96.704C303.448 97.1707 303.158 97.8427 303.158 98.72C303.158 99.3173 303.336 99.812 303.69 100.204C304.064 100.577 304.53 100.876 305.09 101.1C305.65 101.324 306.416 101.567 307.386 101.828C308.674 102.183 309.72 102.537 310.522 102.892C311.344 103.247 312.034 103.797 312.594 104.544C313.173 105.272 313.462 106.252 313.462 107.484C313.462 108.473 313.192 109.407 312.65 110.284C312.128 111.161 311.353 111.871 310.326 112.412C309.318 112.935 308.124 113.196 306.742 113.196ZM323.641 113.196C322.334 113.196 321.158 112.972 320.113 112.524C319.068 112.057 318.246 111.404 317.649 110.564C317.052 109.724 316.753 108.744 316.753 107.624H320.169C320.244 108.464 320.57 109.155 321.149 109.696C321.746 110.237 322.577 110.508 323.641 110.508C324.742 110.508 325.601 110.247 326.217 109.724C326.833 109.183 327.141 108.492 327.141 107.652C327.141 106.999 326.945 106.467 326.553 106.056C326.18 105.645 325.704 105.328 325.125 105.104C324.565 104.88 323.781 104.637 322.773 104.376C321.504 104.04 320.468 103.704 319.665 103.368C318.881 103.013 318.209 102.472 317.649 101.744C317.089 101.016 316.809 100.045 316.809 98.832C316.809 97.712 317.089 96.732 317.649 95.892C318.209 95.052 318.993 94.408 320.001 93.96C321.009 93.512 322.176 93.288 323.501 93.288C325.386 93.288 326.926 93.764 328.121 94.716C329.334 95.6493 330.006 96.9373 330.137 98.58H326.609C326.553 97.8707 326.217 97.264 325.601 96.76C324.985 96.256 324.173 96.004 323.165 96.004C322.25 96.004 321.504 96.2373 320.925 96.704C320.346 97.1707 320.057 97.8427 320.057 98.72C320.057 99.3173 320.234 99.812 320.589 100.204C320.962 100.577 321.429 100.876 321.989 101.1C322.549 101.324 323.314 101.567 324.285 101.828C325.573 102.183 326.618 102.537 327.421 102.892C328.242 103.247 328.933 103.797 329.493 104.544C330.072 105.272 330.361 106.252 330.361 107.484C330.361 108.473 330.09 109.407 329.549 110.284C329.026 111.161 328.252 111.871 327.225 112.412C326.217 112.935 325.022 113.196 323.641 113.196ZM340.337 103.228C340.337 101.324 340.775 99.616 341.653 98.104C342.549 96.592 343.753 95.416 345.265 94.576C346.795 93.7173 348.466 93.288 350.277 93.288C352.349 93.288 354.187 93.8013 355.793 94.828C357.417 95.836 358.593 97.2733 359.321 99.14H355.485C354.981 98.1133 354.281 97.348 353.385 96.844C352.489 96.34 351.453 96.088 350.277 96.088C348.989 96.088 347.841 96.3773 346.833 96.956C345.825 97.5347 345.031 98.3653 344.453 99.448C343.893 100.531 343.613 101.791 343.613 103.228C343.613 104.665 343.893 105.925 344.453 107.008C345.031 108.091 345.825 108.931 346.833 109.528C347.841 110.107 348.989 110.396 350.277 110.396C351.453 110.396 352.489 110.144 353.385 109.64C354.281 109.136 354.981 108.371 355.485 107.344H359.321C358.593 109.211 357.417 110.648 355.793 111.656C354.187 112.664 352.349 113.168 350.277 113.168C348.447 113.168 346.777 112.748 345.265 111.908C343.753 111.049 342.549 109.864 341.653 108.352C340.775 106.84 340.337 105.132 340.337 103.228ZM366.249 110.424H372.829V113H363.057V93.54H366.249V110.424ZM378.69 93.54V113H375.498V93.54H378.69ZM398.869 113H395.677L386.073 98.468V113H382.881V93.512H386.073L395.677 108.016V93.512H398.869V113ZM406.253 93.54V113H403.061V93.54H406.253ZM409.38 103.228C409.38 101.324 409.818 99.616 410.696 98.104C411.592 96.592 412.796 95.416 414.308 94.576C415.838 93.7173 417.509 93.288 419.32 93.288C421.392 93.288 423.23 93.8013 424.836 94.828C426.46 95.836 427.636 97.2733 428.364 99.14H424.528C424.024 98.1133 423.324 97.348 422.428 96.844C421.532 96.34 420.496 96.088 419.32 96.088C418.032 96.088 416.884 96.3773 415.876 96.956C414.868 97.5347 414.074 98.3653 413.496 99.448C412.936 100.531 412.656 101.791 412.656 103.228C412.656 104.665 412.936 105.925 413.496 107.008C414.074 108.091 414.868 108.931 415.876 109.528C416.884 110.107 418.032 110.396 419.32 110.396C420.496 110.396 421.532 110.144 422.428 109.64C423.324 109.136 424.024 108.371 424.528 107.344H428.364C427.636 109.211 426.46 110.648 424.836 111.656C423.23 112.664 421.392 113.168 419.32 113.168C417.49 113.168 415.82 112.748 414.308 111.908C412.796 111.049 411.592 109.864 410.696 108.352C409.818 106.84 409.38 105.132 409.38 103.228Z" fill="black"/>
</svg>
